# xmcd
#
# Track frame offsets:
#	150
#	1979
#	12685
#	29643
#	46251
#	60035
#	62062
#	82015
#	103060
#	155943
#	174488
#	192027
#	212469
#	237728
#	239870
#	260577
#	279716
#	299898
#	301105
#
# Disc length: 4386 seconds
#
# Revision: 0
# Processed by: cddbd v1.5.2PL0 Copyright (c) Steve Scherf et al.
# Submitted via: audiograbber 1.83.01
#
DISCID=1e112013
DTITLE=Diamond Rio - Diamond Rio LIVE
DYEAR=2014
DGENRE=Country
TTITLE0=Intro
TTITLE1=Unbelievable
TTITLE2=Norma Jean Riley
TTITLE3=Hits Medley #1
TTITLE4=Mirror Mirror
TTITLE5=Welcome
TTITLE6=One More Day
TTITLE7=Beautiful Mess
TTITLE8=Hits Medley #2
TTITLE9=In God We Still Trust
TTITLE10=This Is My Life
TTITLE11=I Believe
TTITLE12=Newgrass Medley
TTITLE13=Band Introductions
TTITLE14=Meet In The Middle
TTITLE15=How Your Love Makes Me Feel
TTITLE16=Bubba Hyde
TTITLE17=Intro Western Medley
TTITLE18=Western Medley
EXTD=Grammy Award Winning Act Diamond Rio's First Live CD Release.
EXTT0=
EXTT1=
EXTT2=
EXTT3=
EXTT4=
EXTT5=
EXTT6=
EXTT7=
EXTT8=
EXTT9=
EXTT10=
EXTT11=
EXTT12=
EXTT13=
EXTT14=
EXTT15=
EXTT16=
EXTT17=
EXTT18=
PLAYORDER=
